# xmcd CD database file
#
# Track frame offsets:
#	150
#	12044
#	21134
#	29911
#	48134
#	60114
#	69626
#	79336
#	92125
#	103938
#	113594
#	127137
#	139965
#	151991
#	163373
#	172608
#	179444
#	191154
#	206917
#	217581
#	231616
#	244100
#	255079
#	267863
#	278979
#
# Disc length: 3903 seconds
#
# Revision: 2
# Processed by: cddbd v1.5.2PL0 Copyright (c) Steve Scherf et al.
# Submitted via: CDex 1.51
#
DISCID=640f3d19
DTITLE=Various Artist - Seaside Special CD1
DYEAR=2014
DGENRE=Oldies
TTITLE0=Lonnie Donegan - Sloop John B
TTITLE1=Cliff Richard - Bachelor Boy
TTITLE2=Joe Brown - It Only Takes a Minute
TTITLE3=Kenny Ball and His Jazzmen - Teddy Bear's Picnic
TTITLE4=Helen Shapiro - You Don't Know
TTITLE5=Jim Dale - Sugartime
TTITLE6=Bernard Cribbins - One Man Band
TTITLE7=Shirley Bassey - I'll Get By
TTITLE8=Terry Scott - My Brother
TTITLE9=Ruby Murray - Heartbeat
TTITLE10=Charlie Drake - Naughty
TTITLE11=Lonnie Donegan - Have a Drink On Me
TTITLE12=Ketty Lester - Love Letters
TTITLE13=George Chisholm - Honeysuckle Rose
TTITLE14=Russ Conway - China Tea
TTITLE15=Eric Sykes and Hattie Jacques - I Love Paris
TTITLE16=Tommy Steele, Sid James and Bernard Cribbins - Where's the Birdie
TTITLE17=Eartha Kitt - I Want To Be Evil
TTITLE18=Frankie Vaughan - Istanbul
TTITLE19=Tessie O'Shea - The Good Girl and the Bad Girl
TTITLE20=Anne Shelton - Sailor
TTITLE21=Barry Cryer - The Purple People Eater
TTITLE22=The Beverley Sisters - The Skye Boat Song
TTITLE23=Billy Cotten and His Band - On the Steps of Old St Paul's
TTITLE24=Ken Dodd - Beautiful Dreamer
EXTD=YEAR: 2014
EXTT0=
EXTT1=
EXTT2=
EXTT3=
EXTT4=
EXTT5=
EXTT6=
EXTT7=
EXTT8=
EXTT9=
EXTT10=
EXTT11=
EXTT12=
EXTT13=
EXTT14=
EXTT15=
EXTT16=
EXTT17=
EXTT18=
EXTT19=
EXTT20=
EXTT21=
EXTT22=
EXTT23=
EXTT24=
PLAYORDER=
